name C:\Users\Nicos\Documents\OpenSimProjects\SprintingProject\Study1\PredictiveResults\IC_pred_Sprinting_optimum_28-October-2023__09-53-48___HTD_Minus_6_p02_maxVel_01.mot
datacolumns 38
datarows 15
range 0.05600000 0.07033779
endheader
                time	/jointset/ground_pelvis/pelvis_tilt/value	/jointset/ground_pelvis/pelvis_list/value	/jointset/ground_pelvis/pelvis_rotation/value	/jointset/ground_pelvis/pelvis_tx/value	/jointset/ground_pelvis/pelvis_ty/value	/jointset/ground_pelvis/pelvis_tz/value	/jointset/hip_r/hip_flexion_r/value	/jointset/hip_r/hip_adduction_r/value	/jointset/hip_r/hip_rotation_r/value	/jointset/knee_r/knee_angle_r/value	/jointset/ankle_r/ankle_angle_r/value	/jointset/subtalar_r/subtalar_angle_r/value	/jointset/mtp_r/mtp_angle_r/value	/jointset/hip_l/hip_flexion_l/value	/jointset/hip_l/hip_adduction_l/value	/jointset/hip_l/hip_rotation_l/value	/jointset/knee_l/knee_angle_l/value	/jointset/ankle_l/ankle_angle_l/value	/jointset/subtalar_l/subtalar_angle_l/value	/jointset/mtp_l/mtp_angle_l/value	/jointset/back/lumbar_extension/value	/jointset/back/lumbar_bending/value	/jointset/back/lumbar_rotation/value	/jointset/acromial_r/arm_flex_r/value	/jointset/acromial_r/arm_add_r/value	/jointset/acromial_r/arm_rot_r/value	/jointset/elbow_r/elbow_flex_r/value	/jointset/radioulnar_r/pro_sup_r/value	/jointset/radius_hand_r/wrist_flex_r/value	/jointset/radius_hand_r/wrist_dev_r/value	/jointset/acromial_l/arm_flex_l/value	/jointset/acromial_l/arm_add_l/value	/jointset/acromial_l/arm_rot_l/value	/jointset/elbow_l/elbow_flex_l/value	/jointset/radioulnar_l/pro_sup_l/value	/jointset/radius_hand_l/wrist_flex_l/value	/jointset/radius_hand_l/wrist_dev_l/value	
          0.05600000	         -6.83412020	         -3.55264169	        -10.63606704	         -0.00000000	          1.00254956	          0.30715225	         30.06667544	          5.73433255	          3.76056616	        -17.26936927	        -14.49893020	         -5.95808963	          5.02073117	         34.23432770	         -7.93791377	          1.11283449	       -118.53296503	         -3.15019829	        -14.78850144	         -3.14369381	        -21.26279268	          6.43685970	          3.81577662	         -6.09383763	        -20.87956682	        -14.71856630	        116.58207948	         50.51064600	          6.61908544	          5.20816577	         -0.45046685	        -14.79482729	         -8.08389983	         73.51438601	         64.52014813	          6.37005998	          6.55340110	
          0.05660991	         -6.89568904	         -3.45775567	        -10.87397491	          0.00685660	          1.00201127	          0.30729475	         29.77767790	          5.69546806	          3.74930546	        -17.17739454	        -14.22496194	         -5.87061055	          4.52737014	         34.64895978	         -7.97126072	          1.00016404	       -118.82207442	         -2.88568415	        -14.72920691	         -2.73949758	        -21.13500394	          6.31697223	          4.02547080	         -5.26992417	        -20.68065356	        -14.70638982	        116.97362129	         50.29275912	          6.60073398	          5.21202565	         -0.98996080	        -14.56891594	         -7.78375249	         73.56910971	         64.46984677	          6.46646616	          6.55330010	
          0.05853697	         -7.07629218	         -3.14189050	        -11.62599468	          0.02855315	          1.00024282	          0.30774561	         28.84603969	          5.54415622	          3.78028329	        -16.89720193	        -13.20179454	         -5.52135548	          2.92913999	         35.95418572	         -8.07980284	          0.64260430	       -119.72169189	         -2.04426122	        -14.50269440	         -1.58486145	        -20.73130377	          5.92457079	          4.69166504	         -2.67176046	        -20.03343221	        -14.69326395	        118.20229567	         49.51381809	          6.56327392	          5.18407708	         -2.72209162	        -13.85511843	         -6.85427179	         73.81144459	         64.43165613	          6.75789284	          6.58663979	
          0.05993360	         -7.18965774	         -2.89902377	        -12.16833272	          0.04430924	          0.99890687	          0.30806889	         28.15092545	          5.40440386	          3.85707336	        -16.72123194	        -12.28587226	         -5.21302280	          1.82696549	         36.89086299	         -8.15996405	          0.38322555	       -120.35909263	         -1.43009161	        -14.31188104	         -0.86079898	        -20.44378436	          5.62825554	          5.17526287	         -0.79304913	        -19.54756769	        -14.70902437	        119.09100447	         48.91709445	          6.54754385	          5.14337877	         -4.00324266	        -13.33761078	         -6.20174192	         74.04460920	         64.47001668	          6.96466346	          6.62508818	
          0.05993360	         -7.18965774	         -2.89902377	        -12.16833272	          0.04430924	          0.99890687	          0.30806889	         28.15092545	          5.40440386	          3.85707336	        -16.72123194	        -12.28587226	         -5.21302280	          1.82696549	         36.89086299	         -8.15996405	          0.38322555	       -120.35909263	         -1.43009161	        -14.31188104	         -0.86079898	        -20.44378436	          5.62825554	          5.17526287	         -0.79304913	        -19.54756769	        -14.70902437	        119.09100447	         48.91709445	          6.54754385	          5.14337877	         -4.00324266	        -13.33761078	         -6.20174192	         74.04460920	         64.47001668	          6.96466346	          6.62508818	
          0.06054351	         -7.23344676	         -2.78974409	        -12.40336103	          0.05119853	          0.99831190	          0.30820769	         27.84137419	          5.33471335	          3.90248360	        -16.65572106	        -11.82921302	         -5.06826285	          1.36776603	         37.29635298	         -8.19473855	          0.27059032	       -120.63321721	         -1.16227331	        -14.22486145	         -0.55158687	        -20.32090396	          5.49615268	          5.38568432	          0.02636487	        -19.33111839	        -14.72361153	        119.48022363	         48.66699258	          6.54297371	          5.12459773	         -4.56927086	        -13.11119995	         -5.92435351	         74.16005849	         64.51148836	          7.05436255	          6.64236560	
          0.06247058	         -7.34535079	         -2.43128664	        -13.14112253	          0.07299507	          0.99639827	          0.30864045	         26.84276203	          5.07764376	          4.08598224	        -16.52927247	        -10.21290090	         -4.62378753	          0.01740969	         38.55838795	         -8.30477210	         -0.08777878	       -121.47995311	         -0.32407546	        -13.95547750	          0.47150556	        -19.94795047	          5.06525913	          6.04776027	          2.61529090	        -18.63142812	        -14.79254553	        120.71900545	         47.98390554	          6.54546379	          5.10284287	         -6.38826862	        -12.39637618	         -5.08093808	         74.58758943	         64.66700269	          7.32985456	          6.73066930	
          0.06386721	         -7.39910271	         -2.16984441	        -13.66082531	          0.08881876	          0.99499416	          0.30893573	         26.09606132	          4.85962059	          4.23566364	        -16.53033548	         -8.87475316	         -4.30245841	         -0.82941715	         39.45445576	         -8.38672940	         -0.33579614	       -122.07582528	          0.27687153	        -13.77095286	          1.25191055	        -19.69841860	          4.75327888	          6.51693070	          4.49406343	        -18.11501629	        -14.85425946	        121.62600646	         47.59024484	          6.56357033	          5.10781061	         -7.73786953	        -11.87831124	         -4.50184853	         74.95843178	         64.76467106	          7.52712448	          6.80326665	
          0.06386721	         -7.39910271	         -2.16984441	        -13.66082531	          0.08881876	          0.99499416	          0.30893573	         26.09606132	          4.85962059	          4.23566364	        -16.53033548	         -8.87475316	         -4.30245841	         -0.82941715	         39.45445576	         -8.38672940	         -0.33579614	       -122.07582528	          0.27687153	        -13.77095286	          1.25191055	        -19.69841860	          4.75327888	          6.51693070	          4.49406343	        -18.11501629	        -14.85425946	        121.62600646	         47.59024484	          6.56357033	          5.10781061	         -7.73786953	        -11.87831124	         -4.50184853	         74.95843178	         64.76467106	          7.52712448	          6.80326665	
          0.06447712	         -7.41474257	         -2.05824351	        -13.88076558	          0.09573593	          0.99438056	          0.30905596	         25.76265926	          4.75695766	          4.30029826	        -16.55794159	         -8.24706343	         -4.15843426	         -1.15729444	         39.84078235	         -8.42347958	         -0.43692480	       -122.33154374	          0.53855759	        -13.69389771	          1.59009400	        -19.59663391	          4.62082277	          6.71671659	          5.31565742	        -17.88873091	        -14.88094115	        122.02398243	         47.44091444	          6.57672638	          5.10445734	         -8.33571584	        -11.65205603	         -4.25753735	         75.13673431	         64.81296957	          7.61577960	          6.82943758	
          0.06640418	         -7.43413750	         -1.72434634	        -14.53878674	          0.11761628	          0.99245045	          0.30939069	         24.67967971	          4.40734248	          4.48552346	        -16.76486470	         -6.01505266	         -3.69074696	         -2.03424949	         41.04483717	         -8.54329164	         -0.71559648	       -123.12226544	          1.37167955	        -13.46224342	          2.54029185	        -19.30637761	          4.22778610	          7.32025094	          7.91820649	        -17.17818005	        -14.95397440	        123.29296234	         47.06040092	          6.63083083	          5.08932678	        -10.25783787	        -10.93666196	         -3.52103202	         75.76512750	         64.97644195	          7.90800394	          6.88308096	
          0.06780081	         -7.42445554	         -1.49917724	        -14.98167827	          0.13349030	          0.99106444	          0.30959350	         23.87139750	          4.13256946	          4.62271884	        -17.01487849	         -4.19275543	         -3.33874220	         -2.51884727	         41.90690217	         -8.63241522	         -0.88008647	       -123.67735717	          1.98327137	        -13.30807011	          3.13278716	        -19.12226513	          3.96551811	          7.73096229	          9.81105736	        -16.66645641	        -14.99033297	        124.22570152	         46.88054204	          6.67932062	          5.09072044	        -11.68242034	        -10.41895391	         -3.01976147	         76.28229032	         65.05762196	          8.12491230	          6.89991096	
          0.06780081	         -7.42445554	         -1.49917724	        -14.98167827	          0.13349030	          0.99106444	          0.30959350	         23.87139750	          4.13256946	          4.62271884	        -17.01487849	         -4.19275543	         -3.33874220	         -2.51884727	         41.90690217	         -8.63241522	         -0.88008647	       -123.67735717	          1.98327137	        -13.30807011	          3.13278716	        -19.12226513	          3.96551811	          7.73096229	          9.81105736	        -16.66645641	        -14.99033297	        124.22570152	         46.88054204	          6.67932062	          5.09072044	        -11.68242034	        -10.41895391	         -3.01976147	         76.28229032	         65.05762196	          8.12491230	          6.89991096	
          0.06841072	         -7.41506939	         -1.40481181	        -15.16648897	          0.14042497	          0.99046390	          0.30967242	         23.51345067	          4.00740372	          4.68850070	        -17.14670824	         -3.35152155	         -3.18290031	         -2.69067002	         42.28171755	         -8.67141180	         -0.94269576	       -123.91450259	          2.25232011	        -13.24556385	          3.38027230	        -19.04794975	          3.85623080	          7.90321994	         10.63945897	        -16.44356027	        -14.99974202	        124.63686547	         46.81977138	          6.70126153	          5.09803815	        -12.31280296	        -10.19343675	         -2.80919477	         76.52435725	         65.07663210	          8.22002572	          6.90150119	
          0.07033779	         -7.37027416	         -1.12348011	        -15.71420633	          0.16233920	          0.98859208	          0.30988265	         22.36290334	          3.59530532	          4.95839708	        -17.61078344	         -0.63451961	         -2.66282772	         -3.07455621	         43.46610397	         -8.79319319	         -1.10005312	       -124.64154176	          3.11820093	        -13.05976921	          3.99457392	        -18.83363515	          3.53350218	          8.41722071	         13.26340071	        -15.74068203	        -14.99924088	        125.95136764	         46.78009220	          6.78424427	          5.13781664	        -14.33614332	         -9.48294231	         -2.18054673	         77.35447357	         65.06217729	          8.51985223	          6.90910527	
